<svg width="14" height="18" viewBox="0 0 14 18" fill="none" xmlns="http://www.w3.org/2000/svg">
<path fill-rule="evenodd" clip-rule="evenodd" d="M4.77913 2.93938V3.37784C2.53763 4.29702 0.971597 7.31612 1.02842 9.93262L1.02841 11.3859C-0.119065 12.8611 -0.0515499 15.0606 2.81125 15.0606H4.77913C4.77913 15.6634 5.01403 16.2414 5.43215 16.6677C5.85027 17.0939 6.41736 17.3333 7.00867 17.3333C7.59998 17.3333 8.16707 17.0939 8.58519 16.6677C9.0033 16.2414 9.2382 15.6634 9.2382 15.0606H11.2115C14.0688 15.0606 14.1103 12.8565 12.9629 11.3813L12.9948 9.93469C13.0526 7.31508 11.4835 4.29327 9.2382 3.3754V2.93938C9.2382 2.33662 9.0033 1.75854 8.58519 1.33232C8.16707 0.906104 7.59998 0.666656 7.00867 0.666656C6.41736 0.666656 5.85027 0.906104 5.43215 1.33232C5.01403 1.75854 4.77913 2.33662 4.77913 2.93938ZM7.75184 2.93938C7.75184 2.95477 7.75139 2.9701 7.75048 2.98537C7.50843 2.95502 7.26187 2.93938 7.01165 2.93938C6.75939 2.93938 6.51085 2.95527 6.2669 2.98612C6.26596 2.9706 6.26549 2.95502 6.26549 2.93938C6.26549 2.73846 6.34379 2.54577 6.48316 2.4037C6.62253 2.26162 6.81156 2.18181 7.00867 2.18181C7.20577 2.18181 7.3948 2.26162 7.53417 2.4037C7.67355 2.54577 7.75184 2.73846 7.75184 2.93938ZM6.26549 15.0606C6.26549 15.2615 6.34379 15.4542 6.48316 15.5963C6.62253 15.7384 6.81156 15.8182 7.00867 15.8182C7.20577 15.8182 7.3948 15.7384 7.53417 15.5963C7.67355 15.4542 7.75184 15.2615 7.75184 15.0606H6.26549ZM11.2115 13.5454C11.8464 13.5454 12.189 12.7863 11.7757 12.2948C11.575 12.0561 11.468 11.7523 11.4749 11.4405L11.5089 9.90064C11.5656 7.32846 9.53559 4.45454 7.01165 4.45454C4.48831 4.45454 2.45856 7.3275 2.51442 9.89909L2.5479 11.4407C2.55467 11.7525 2.44771 12.0561 2.24699 12.2948C1.83378 12.7863 2.17631 13.5454 2.81125 13.5454H11.2115Z" fill="#29364E"/>
</svg>
