<svg width="12" height="18" viewBox="0 0 12 18" fill="none" xmlns="http://www.w3.org/2000/svg">
<path fill-rule="evenodd" clip-rule="evenodd" d="M3 0.916664C1.34315 0.916664 0 2.25981 0 3.91666V14.9167C0 16.5735 1.34315 17.9167 3 17.9167H9C10.6569 17.9167 12 16.5735 12 14.9167V3.91666C12 2.25981 10.6569 0.916664 9 0.916664H3ZM2 3.91666C2 3.36438 2.44772 2.91666 3 2.91666H9C9.55228 2.91666 10 3.36438 10 3.91666V14.9167C10 15.4689 9.55229 15.9167 9 15.9167H3C2.44772 15.9167 2 15.4689 2 14.9167V3.91666ZM4.33333 13.4167C3.78105 13.4167 3.33333 13.8644 3.33333 14.4167C3.33333 14.9689 3.78105 15.4167 4.33333 15.4167H7.66667C8.21895 15.4167 8.66667 14.9689 8.66667 14.4167C8.66667 13.8644 8.21895 13.4167 7.66667 13.4167H4.33333Z" fill="#8693A3"/>
</svg>
