<svg width="15" height="20" viewBox="0 0 15 20" fill="none" xmlns="http://www.w3.org/2000/svg">
<path fill-rule="evenodd" clip-rule="evenodd" d="M3.33333 0.5C1.67648 0.5 0.333332 1.84315 0.333332 3.5V16.5C0.333332 18.1569 1.67648 19.5 3.33333 19.5H11.3333C12.9902 19.5 14.3333 18.1569 14.3333 16.5V3.5C14.3333 1.84315 12.9902 0.5 11.3333 0.5H3.33333ZM2.33333 3.5C2.33333 2.94772 2.78105 2.5 3.33333 2.5H11.3333C11.8856 2.5 12.3333 2.94772 12.3333 3.5V16.5C12.3333 17.0523 11.8856 17.5 11.3333 17.5H3.33333C2.78105 17.5 2.33333 17.0523 2.33333 16.5V3.5ZM5.33333 14.5C4.78105 14.5 4.33333 14.9477 4.33333 15.5C4.33333 16.0523 4.78105 16.5 5.33333 16.5H9.33333C9.88562 16.5 10.3333 16.0523 10.3333 15.5C10.3333 14.9477 9.88562 14.5 9.33333 14.5H5.33333Z" fill="#828282"/>
</svg>
